<?xml version="1.0" encoding="UTF-8"?>
<svg id="Layer_1" xmlns="http://www.w3.org/2000/svg" width="700" height="200" xmlns:xlink="http://www.w3.org/1999/xlink" version="1.1" viewBox="0 0 700 200">
  <!-- Generator: Adobe Illustrator 29.6.1, SVG Export Plug-In . SVG Version: 2.1.1 Build 9)  -->
  <defs>
    <style>
      .st0 {
        fill: none;
      }

      .st1 {
        fill: #69cce7;
      }

      .st2 {
        clip-path: url(#clippath);
      }
    </style>
    <clipPath id="clippath">
      <rect class="st0" x="38" y="35" width="624" height="130"/>
    </clipPath>
  </defs>
  <g id="Group_2">
    <g class="st2">
      <g id="Group_1">
        <path id="Path_1" class="st1" d="M38,109.5c0-25.4,15.3-37.8,37.3-37.8s37.1,12.3,37.1,37.9v1h-11.8v-1.3c0-18.5-10.2-26.7-25.3-26.7s-25.3,8.3-25.3,26.7v53h-12v-52.9Z"/>
        <path id="Path_2" class="st1" d="M120.6,118.3c0-26.9,19.8-46.6,47.7-46.6s47.7,19.8,47.7,46.6-19.8,46.6-47.7,46.6-47.7-19.8-47.7-46.6M203.8,118.3c0-20.4-14.3-35.4-35.4-35.4s-35.4,15.1-35.4,35.4,14.3,35.4,35.4,35.4,35.4-15.1,35.4-35.4"/>
        <path id="Path_3" class="st1" d="M224.3,118.3c0-26.9,19.8-46.6,47.7-46.6s47.7,19.8,47.7,46.6-19.8,46.6-47.7,46.6-47.7-19.8-47.7-46.6M307.4,118.3c0-20.4-14.3-35.4-35.4-35.4s-35.4,15.1-35.4,35.4,14.3,35.4,35.4,35.4,35.4-15.1,35.4-35.4"/>
        <path id="Path_4" class="st1" d="M333.5,110.8c0-26.3,15.4-39.1,35.9-39.1s26.1,6.8,31.9,19.9c5.5-13.1,17.4-19.9,31.9-19.9s35.9,12.8,35.9,39.1v51.7h-12v-51.7c0-18.8-10.3-27.9-24.8-27.9s-24.9,9.5-24.9,27.9v51.7h-12v-51.7c0-18.5-10.8-27.9-25.1-27.9s-24.8,9.1-24.8,27.9v51.7h-12v-51.7h.1Z"/>
        <path id="Path_5" class="st1" d="M534.7,50.3c-1.8-7.3,4.1-13.3,11.4-11.4,3,.9,5.3,3.2,6.2,6.2,1.8,7.3-4.1,13.3-11.5,11.5-2.9-1-5.1-3.3-6.1-6.3M537.5,74.1h12v88.5h-12v-88.5Z"/>
        <path id="Path_6" class="st1" d="M566.8,118c0-27.3,19.9-46.2,45.9-46.2s30.6,7.8,37.3,21.3v-57.7h12v82.5c0,28.5-19.9,47.1-47.3,47.1-28.2-.1-47.9-19.9-47.9-47M649.9,118.3c0-20.4-14.1-35.4-35.4-35.4s-35.4,15.1-35.4,35.4,14.3,35.4,35.4,35.4,35.4-15.1,35.4-35.4"/>
        <path id="Path_7" class="st1" d="M495.4,118.3c0-5,4.1-9.1,9.1-9.1,5,0,9.1,4.1,9.1,9.1s-4.1,9.1-9.1,9.1h0c-4.9.1-9-3.8-9.1-8.7,0-.1,0-.3,0-.4"/>
      </g>
    </g>
  </g>
</svg>