<svg xmlns="http://www.w3.org/2000/svg" xmlns:xlink="http://www.w3.org/1999/xlink" width="624" height="130" viewBox="0 0 624 130">
  <defs>
    <clipPath id="clip-path">
      <rect id="Rectangle_1" data-name="Rectangle 1" width="624" height="130" transform="translate(0 -0.392)" fill="none"/>
    </clipPath>
  </defs>
  <g id="Group_2" data-name="Group 2" transform="translate(0 0.392)">
    <g id="Group_1" data-name="Group 1" clip-path="url(#clip-path)">
      <path id="Path_1" data-name="Path 1" d="M0,72.537C0,47.138,15.26,34.7,37.315,34.7S74.42,47.034,74.42,72.642v1.045H62.609V72.433c0-18.5-10.243-26.653-25.294-26.653-15.26,0-25.294,8.257-25.294,26.653v52.993H0Z" transform="translate(0 1.569)" fill="#69cce7"/>
      <path id="Path_2" data-name="Path 2" d="M79,81.317C79,54.455,98.755,34.7,126.662,34.7s47.662,19.755,47.662,46.617-19.755,46.617-47.662,46.617S79,108.179,79,81.317m83.2,0c0-20.382-14.32-35.433-35.433-35.433S91.334,60.935,91.334,81.317s14.32,35.433,35.433,35.433c21.009,0,35.433-15.051,35.433-35.433" transform="translate(3.573 1.569)" fill="#69cce7"/>
      <path id="Path_3" data-name="Path 3" d="M178.2,81.317c0-26.862,19.755-46.617,47.662-46.617s47.662,19.755,47.662,46.617-19.755,46.617-47.662,46.617c-28.012,0-47.662-19.755-47.662-46.617m83.1,0c0-20.382-14.32-35.433-35.433-35.433s-35.433,15.051-35.433,35.433,14.32,35.433,35.433,35.433S261.3,101.7,261.3,81.317" transform="translate(8.059 1.569)" fill="#69cce7"/>
      <path id="Path_4" data-name="Path 4" d="M282.7,73.791c0-26.34,15.365-39.091,35.851-39.091,14.32,0,26.131,6.794,31.879,19.859,5.54-13.065,17.351-19.859,31.879-19.859,20.382,0,35.851,12.752,35.851,39.091V125.53h-12.02V73.791c0-18.814-10.348-27.908-24.772-27.908-14.32,0-24.876,9.512-24.876,27.908V125.53h-12.02V73.791c0-18.5-10.766-27.908-25.085-27.908S294.62,54.977,294.62,73.791V125.53H282.6V73.791Z" transform="translate(12.781 1.569)" fill="#69cce7"/>
      <path id="Path_5" data-name="Path 5" d="M475.214,14.808c-1.777-7.317,4.076-13.274,11.393-11.393a9.13,9.13,0,0,1,6.167,6.167c1.777,7.317-4.076,13.274-11.5,11.5a9.784,9.784,0,0,1-6.062-6.271m2.822,23.727h12.02v88.531h-12.02Z" transform="translate(21.478 0.139)" fill="#69cce7"/>
      <path id="Path_6" data-name="Path 6" d="M505.9,82.573c0-27.28,19.859-46.2,45.885-46.2,16.828,0,30.625,7.839,37.315,21.323V0h12.02V82.468c0,28.535-19.859,47.14-47.349,47.14-28.221-.1-47.871-19.859-47.871-47.035m83.1.314c0-20.382-14.111-35.433-35.433-35.433-21.114,0-35.433,15.051-35.433,35.433s14.32,35.433,35.433,35.433c21.323,0,35.433-15.051,35.433-35.433" transform="translate(22.88)" fill="#69cce7"/>
      <path id="Path_7" data-name="Path 7" d="M437.6,79.693a9.093,9.093,0,1,1,9.093,9.093,8.906,8.906,0,0,1-9.093-9.093" transform="translate(19.791 3.193)" fill="#69cce7"/>
    </g>
  </g>
</svg>
